<mxfile host="app.diagrams.net" modified="2021-06-10T05:19:35.004Z" agent="5.0 (Windows NT 10.0; Win64; x64) AppleWebKit/537.36 (KHTML, like Gecko) Chrome/91.0.4472.77 Safari/537.36" etag="L-RakumEqvgLd25z-VDC" version="14.1.8" type="github">
  <diagram id="SDGkKcqbBfwVcGVHuYnC" name="Page-1">
    <mxGraphModel dx="1662" dy="794" grid="1" gridSize="10" guides="1" tooltips="1" connect="1" arrows="1" fold="1" page="1" pageScale="1" pageWidth="850" pageHeight="1100" math="0" shadow="0">
      <root>
        <mxCell id="0" />
        <mxCell id="1" parent="0" />
        <mxCell id="bei-1_Uh6omCs8kWXJwY-1" value="Deck&#xa;" style="swimlane;fontStyle=1;align=center;verticalAlign=top;childLayout=stackLayout;horizontal=1;startSize=26;horizontalStack=0;resizeParent=1;resizeParentMax=0;resizeLast=0;collapsible=1;marginBottom=0;" vertex="1" parent="1">
          <mxGeometry x="40" y="280" width="160" height="180" as="geometry" />
        </mxCell>
        <mxCell id="bei-1_Uh6omCs8kWXJwY-2" value="- List&lt;Player&gt; players&#xa;- Dealer dealer&#xa;- List&lt;Card&gt; cards" style="text;strokeColor=none;fillColor=none;align=left;verticalAlign=top;spacingLeft=4;spacingRight=4;overflow=hidden;rotatable=0;points=[[0,0.5],[1,0.5]];portConstraint=eastwest;" vertex="1" parent="bei-1_Uh6omCs8kWXJwY-1">
          <mxGeometry y="26" width="160" height="54" as="geometry" />
        </mxCell>
        <mxCell id="bei-1_Uh6omCs8kWXJwY-3" value="" style="line;strokeWidth=1;fillColor=none;align=left;verticalAlign=middle;spacingTop=-1;spacingLeft=3;spacingRight=3;rotatable=0;labelPosition=right;points=[];portConstraint=eastwest;" vertex="1" parent="bei-1_Uh6omCs8kWXJwY-1">
          <mxGeometry y="80" width="160" height="8" as="geometry" />
        </mxCell>
        <mxCell id="bei-1_Uh6omCs8kWXJwY-4" value="+ void addPlayer(Player p)&#xa;+ void shuffle()&#xa;+ void dealInitialCard()&#xa;+ Card dealNextCard()&#xa;+ void compareResults()&#xa;&#xa;" style="text;strokeColor=none;fillColor=none;align=left;verticalAlign=top;spacingLeft=4;spacingRight=4;overflow=hidden;rotatable=0;points=[[0,0.5],[1,0.5]];portConstraint=eastwest;" vertex="1" parent="bei-1_Uh6omCs8kWXJwY-1">
          <mxGeometry y="88" width="160" height="92" as="geometry" />
        </mxCell>
        <mxCell id="bei-1_Uh6omCs8kWXJwY-5" value="Player" style="swimlane;fontStyle=1;align=center;verticalAlign=top;childLayout=stackLayout;horizontal=1;startSize=26;horizontalStack=0;resizeParent=1;resizeParentMax=0;resizeLast=0;collapsible=1;marginBottom=0;" vertex="1" parent="1">
          <mxGeometry x="280" y="280" width="180" height="200" as="geometry" />
        </mxCell>
        <mxCell id="bei-1_Uh6omCs8kWXJwY-6" value="- Hand hand&#xa;- int fund&#xa;- int currentBet&#xa;- boolean hasStopped" style="text;strokeColor=none;fillColor=none;align=left;verticalAlign=top;spacingLeft=4;spacingRight=4;overflow=hidden;rotatable=0;points=[[0,0.5],[1,0.5]];portConstraint=eastwest;" vertex="1" parent="bei-1_Uh6omCs8kWXJwY-5">
          <mxGeometry y="26" width="180" height="64" as="geometry" />
        </mxCell>
        <mxCell id="bei-1_Uh6omCs8kWXJwY-7" value="" style="line;strokeWidth=1;fillColor=none;align=left;verticalAlign=middle;spacingTop=-1;spacingLeft=3;spacingRight=3;rotatable=0;labelPosition=right;points=[];portConstraint=eastwest;" vertex="1" parent="bei-1_Uh6omCs8kWXJwY-5">
          <mxGeometry y="90" width="180" height="8" as="geometry" />
        </mxCell>
        <mxCell id="bei-1_Uh6omCs8kWXJwY-8" value="+ void placeBets(int bet)&#xa;+ void joinGame(Deck deck)&#xa;+ void addCardToHand(Card c)&#xa;+ void dealNextCard()&#xa;+ void stopdealing()&#xa;+ int getValue()" style="text;strokeColor=none;fillColor=none;align=left;verticalAlign=top;spacingLeft=4;spacingRight=4;overflow=hidden;rotatable=0;points=[[0,0.5],[1,0.5]];portConstraint=eastwest;" vertex="1" parent="bei-1_Uh6omCs8kWXJwY-5">
          <mxGeometry y="98" width="180" height="102" as="geometry" />
        </mxCell>
        <mxCell id="bei-1_Uh6omCs8kWXJwY-9" value="Dealer" style="swimlane;fontStyle=1;align=center;verticalAlign=top;childLayout=stackLayout;horizontal=1;startSize=26;horizontalStack=0;resizeParent=1;resizeParentMax=0;resizeLast=0;collapsible=1;marginBottom=0;" vertex="1" parent="1">
          <mxGeometry x="480" y="280" width="200" height="128" as="geometry" />
        </mxCell>
        <mxCell id="bei-1_Uh6omCs8kWXJwY-10" value="- Hand hand&#xa;- int fund" style="text;strokeColor=none;fillColor=none;align=left;verticalAlign=top;spacingLeft=4;spacingRight=4;overflow=hidden;rotatable=0;points=[[0,0.5],[1,0.5]];portConstraint=eastwest;" vertex="1" parent="bei-1_Uh6omCs8kWXJwY-9">
          <mxGeometry y="26" width="200" height="44" as="geometry" />
        </mxCell>
        <mxCell id="bei-1_Uh6omCs8kWXJwY-11" value="" style="line;strokeWidth=1;fillColor=none;align=left;verticalAlign=middle;spacingTop=-1;spacingLeft=3;spacingRight=3;rotatable=0;labelPosition=right;points=[];portConstraint=eastwest;" vertex="1" parent="bei-1_Uh6omCs8kWXJwY-9">
          <mxGeometry y="70" width="200" height="8" as="geometry" />
        </mxCell>
        <mxCell id="bei-1_Uh6omCs8kWXJwY-12" value="+ void addCardToHand(Card c)&#xa;+ int getValue()&#xa;+ boolean isLargerThan(Player p)" style="text;strokeColor=none;fillColor=none;align=left;verticalAlign=top;spacingLeft=4;spacingRight=4;overflow=hidden;rotatable=0;points=[[0,0.5],[1,0.5]];portConstraint=eastwest;" vertex="1" parent="bei-1_Uh6omCs8kWXJwY-9">
          <mxGeometry y="78" width="200" height="50" as="geometry" />
        </mxCell>
        <mxCell id="bei-1_Uh6omCs8kWXJwY-13" value="Card" style="swimlane;fontStyle=1;align=center;verticalAlign=top;childLayout=stackLayout;horizontal=1;startSize=26;horizontalStack=0;resizeParent=1;resizeParentMax=0;resizeLast=0;collapsible=1;marginBottom=0;" vertex="1" parent="1">
          <mxGeometry x="280" y="520" width="160" height="70" as="geometry" />
        </mxCell>
        <mxCell id="bei-1_Uh6omCs8kWXJwY-14" value="- String suit&#xa;- int value" style="text;strokeColor=none;fillColor=none;align=left;verticalAlign=top;spacingLeft=4;spacingRight=4;overflow=hidden;rotatable=0;points=[[0,0.5],[1,0.5]];portConstraint=eastwest;" vertex="1" parent="bei-1_Uh6omCs8kWXJwY-13">
          <mxGeometry y="26" width="160" height="44" as="geometry" />
        </mxCell>
        <mxCell id="bei-1_Uh6omCs8kWXJwY-17" value="Hand" style="swimlane;fontStyle=1;align=center;verticalAlign=top;childLayout=stackLayout;horizontal=1;startSize=26;horizontalStack=0;resizeParent=1;resizeParentMax=0;resizeLast=0;collapsible=1;marginBottom=0;" vertex="1" parent="1">
          <mxGeometry x="480" y="440" width="160" height="86" as="geometry" />
        </mxCell>
        <mxCell id="bei-1_Uh6omCs8kWXJwY-18" value="- List&lt;Card&gt; cards" style="text;strokeColor=none;fillColor=none;align=left;verticalAlign=top;spacingLeft=4;spacingRight=4;overflow=hidden;rotatable=0;points=[[0,0.5],[1,0.5]];portConstraint=eastwest;" vertex="1" parent="bei-1_Uh6omCs8kWXJwY-17">
          <mxGeometry y="26" width="160" height="26" as="geometry" />
        </mxCell>
        <mxCell id="bei-1_Uh6omCs8kWXJwY-19" value="" style="line;strokeWidth=1;fillColor=none;align=left;verticalAlign=middle;spacingTop=-1;spacingLeft=3;spacingRight=3;rotatable=0;labelPosition=right;points=[];portConstraint=eastwest;" vertex="1" parent="bei-1_Uh6omCs8kWXJwY-17">
          <mxGeometry y="52" width="160" height="8" as="geometry" />
        </mxCell>
        <mxCell id="bei-1_Uh6omCs8kWXJwY-20" value="+ void insertCard(Card c)" style="text;strokeColor=none;fillColor=none;align=left;verticalAlign=top;spacingLeft=4;spacingRight=4;overflow=hidden;rotatable=0;points=[[0,0.5],[1,0.5]];portConstraint=eastwest;" vertex="1" parent="bei-1_Uh6omCs8kWXJwY-17">
          <mxGeometry y="60" width="160" height="26" as="geometry" />
        </mxCell>
        <mxCell id="bei-1_Uh6omCs8kWXJwY-35" value="" style="edgeStyle=orthogonalEdgeStyle;rounded=0;orthogonalLoop=1;jettySize=auto;html=1;" edge="1" parent="1" source="bei-1_Uh6omCs8kWXJwY-31" target="bei-1_Uh6omCs8kWXJwY-34">
          <mxGeometry relative="1" as="geometry" />
        </mxCell>
        <mxCell id="bei-1_Uh6omCs8kWXJwY-31" value="Use case" style="html=1;" vertex="1" parent="1">
          <mxGeometry x="675" y="560" width="120" height="50" as="geometry" />
        </mxCell>
        <mxCell id="bei-1_Uh6omCs8kWXJwY-34" value="Join Table&lt;br&gt;shuffle cards&lt;br&gt;place bets&lt;br&gt;deal card&lt;br&gt;stop dealing&lt;br&gt;compare results&lt;br&gt;take/win bets" style="whiteSpace=wrap;html=1;" vertex="1" parent="1">
          <mxGeometry x="675" y="610" width="120" height="110" as="geometry" />
        </mxCell>
      </root>
    </mxGraphModel>
  </diagram>
</mxfile>
